# xmcd CD database file
#
# Track frame offsets:
#	150
#	14382
#	33292
#	50182
#	73800
#	90042
#	106797
#	123895
#	141155
#	159520
#
# Disc length: 2373 seconds
#
# Revision: 0
# Processed by: cddbd v1.5.1PL0 Copyright (c) Steve Scherf et al.
# Submitted via: CDex 1.51
#
DISCID=7a09430a
DTITLE=Calvary Chapel - Praise Vol 4 - We Remember
DYEAR=1999
DGENRE=Christian Rock
TTITLE0=Lord I've come to seek your face
TTITLE1=We declare his glory
TTITLE2=Rejoice in the lord
TTITLE3=Nobody like you
TTITLE4=Jesus the righteous one
TTITLE5=We remember
TTITLE6=River to my soul
TTITLE7=Hear me calling
TTITLE8=It brings me joy
TTITLE9=You alone are god
EXTD=YEAR: 1999
EXTT0=
EXTT1=
EXTT2=
EXTT3=
EXTT4=
EXTT5=
EXTT6=
EXTT7=
EXTT8=
EXTT9=
PLAYORDER=
